<svg id="Layer_1" data-name="Layer 1" xmlns="http://www.w3.org/2000/svg" xmlns:xlink="http://www.w3.org/1999/xlink" viewBox="0 0 339.41 452.55"><defs><style>.cls-1{fill:url(#linear-gradient);}.cls-2{fill:url(#linear-gradient-2);}.cls-3{fill:url(#linear-gradient-3);}.cls-4{fill:#231f20;}</style><linearGradient id="linear-gradient" x1="102.78" y1="172.48" x2="236.63" y2="-59.34" gradientUnits="userSpaceOnUse"><stop offset="0" stop-color="#184478"/><stop offset="0.01" stop-color="#194478"/><stop offset="0.21" stop-color="#3e4987"/><stop offset="0.41" stop-color="#5b4d92"/><stop offset="0.61" stop-color="#6f509a"/><stop offset="0.81" stop-color="#7c519f"/><stop offset="1" stop-color="#8052a1"/></linearGradient><linearGradient id="linear-gradient-2" x1="17.93" y1="462.9" x2="95.21" y2="329.06" xlink:href="#linear-gradient"/><linearGradient id="linear-gradient-3" x1="102.79" y1="342.18" x2="236.62" y2="110.37" xlink:href="#linear-gradient"/></defs><title>logo</title><rect class="cls-1" width="339.41" height="113.14"/><rect class="cls-2" y="339.41" width="113.14" height="113.14"/><rect class="cls-3" y="169.71" width="339.41" height="113.13"/><path class="cls-4" d="M142,378.67h6.26v7.81H142v27.7H132.5v-27.7h-4v-7.81h4a29.92,29.92,0,0,1,.81-7.84,9,9,0,0,1,3.34-4.57,11.24,11.24,0,0,1,7-2,35,35,0,0,1,5,.35v7.74a20,20,0,0,0-2.22-.14c-1.9,0-3.11.4-3.64,1.21S142,376,142,378.67Z"/><path class="cls-4" d="M175.55,390l-9.38-.92a11.49,11.49,0,0,1,4.55-8.22,15.93,15.93,0,0,1,9.79-2.89,14.81,14.81,0,0,1,8,1.92,8.43,8.43,0,0,1,3.81,4.45,28.29,28.29,0,0,1,.79,7.84V406.3q0,6.61.6,7.88h-9.21a19.73,19.73,0,0,1-.49-5.45q-3.27,6.19-9.72,6.19a9.37,9.37,0,0,1-6.74-2.48Q165,410,165,405.21q0-5.94,3.93-9.19t14.32-3.88V390.8a11.63,11.63,0,0,0-.72-4.92,2.84,2.84,0,0,0-2.78-1.37C177.2,384.51,175.81,386.32,175.55,390Zm7.67,7.27c-2.89.33-4.94,1-6.17,1.91s-1.85,2.55-1.85,4.79q0,4.49,3.31,4.48a4.08,4.08,0,0,0,3.25-2c1-1.34,1.46-3.82,1.46-7.41Z"/><path class="cls-4" d="M214.81,366.19h9.91v16.24q2.67-4.5,8.72-4.5a8.85,8.85,0,0,1,5.71,1.69,7.38,7.38,0,0,1,2.66,4.27,38.17,38.17,0,0,1,.56,7.51v22.78h-9.91V391.37a10.83,10.83,0,0,0-.65-4.63,2.84,2.84,0,0,0-2.69-1.14,4.53,4.53,0,0,0-3.2,1.09q-1.2,1.1-1.2,5v22.53h-9.91Z"/><path class="cls-4" d="M273.05,390l-9.39-.92a11.53,11.53,0,0,1,4.56-8.22,15.91,15.91,0,0,1,9.79-2.89,14.77,14.77,0,0,1,8,1.92,8.41,8.41,0,0,1,3.82,4.45,28.68,28.68,0,0,1,.79,7.84V406.3q0,6.61.59,7.88H282a19.61,19.61,0,0,1-.5-5.45q-3.25,6.19-9.72,6.19a9.39,9.39,0,0,1-6.74-2.48q-2.6-2.47-2.59-7.23,0-5.94,3.93-9.19t14.31-3.88V390.8a11.84,11.84,0,0,0-.71-4.92,2.84,2.84,0,0,0-2.79-1.37C274.69,384.51,273.31,386.32,273.05,390Zm7.66,7.27q-4.32.5-6.17,1.91t-1.84,4.79q0,4.49,3.3,4.48a4.06,4.06,0,0,0,3.25-2c1-1.34,1.46-3.82,1.46-7.41Z"/><path class="cls-4" d="M329.67,366.19h9.74v48H330.2v-5.87q-2.25,6.36-8.07,6.36a9.16,9.16,0,0,1-8.53-5q-2.81-5-2.81-13.11,0-9.26,3.22-13.82a10,10,0,0,1,8.6-4.57c3.3,0,5.66,1.26,7.06,3.8Zm0,27.34q0-5.23-1.11-7a3.58,3.58,0,0,0-3.23-1.78,3.38,3.38,0,0,0-3.41,2.46q-.9,2.46-.9,10.18,0,5.76,1,8.07a3.35,3.35,0,0,0,3.25,2.32,3.9,3.9,0,0,0,3.16-1.56q1.24-1.56,1.25-6.41Z"/></svg>